<mxfile host="Electron" agent="Mozilla/5.0 (X11; Linux x86_64) AppleWebKit/537.36 (KHTML, like Gecko) draw.io/26.1.1 Chrome/132.0.6834.210 Electron/34.3.3 Safari/537.36" version="26.1.1">
  <diagram name="Page-1" id="KnPI4ZmlF83B3fYuppU8">
    <mxGraphModel dx="1770" dy="1263" grid="1" gridSize="10" guides="1" tooltips="1" connect="1" arrows="1" fold="1" page="1" pageScale="1" pageWidth="1169" pageHeight="827" math="0" shadow="0">
      <root>
        <mxCell id="0" />
        <mxCell id="1" parent="0" />
        <mxCell id="yrhz_q4X63MFtbPa7LVN-11" value="" style="rounded=1;whiteSpace=wrap;html=1;" vertex="1" parent="1">
          <mxGeometry x="210" y="490" width="520" height="170" as="geometry" />
        </mxCell>
        <mxCell id="yrhz_q4X63MFtbPa7LVN-7" style="edgeStyle=orthogonalEdgeStyle;rounded=0;orthogonalLoop=1;jettySize=auto;html=1;entryX=0;entryY=0.5;entryDx=0;entryDy=0;" edge="1" parent="1" source="yrhz_q4X63MFtbPa7LVN-1" target="yrhz_q4X63MFtbPa7LVN-2">
          <mxGeometry relative="1" as="geometry" />
        </mxCell>
        <mxCell id="yrhz_q4X63MFtbPa7LVN-1" value="MQTT Broker" style="ellipse;whiteSpace=wrap;html=1;" vertex="1" parent="1">
          <mxGeometry x="50" y="530" width="120" height="80" as="geometry" />
        </mxCell>
        <mxCell id="yrhz_q4X63MFtbPa7LVN-8" style="edgeStyle=orthogonalEdgeStyle;rounded=0;orthogonalLoop=1;jettySize=auto;html=1;" edge="1" parent="1" source="yrhz_q4X63MFtbPa7LVN-2" target="yrhz_q4X63MFtbPa7LVN-3">
          <mxGeometry relative="1" as="geometry" />
        </mxCell>
        <mxCell id="yrhz_q4X63MFtbPa7LVN-2" value="MQTT Connector" style="rounded=1;whiteSpace=wrap;html=1;" vertex="1" parent="1">
          <mxGeometry x="250" y="540" width="120" height="60" as="geometry" />
        </mxCell>
        <mxCell id="yrhz_q4X63MFtbPa7LVN-9" style="edgeStyle=orthogonalEdgeStyle;rounded=0;orthogonalLoop=1;jettySize=auto;html=1;" edge="1" parent="1" source="yrhz_q4X63MFtbPa7LVN-3" target="yrhz_q4X63MFtbPa7LVN-4">
          <mxGeometry relative="1" as="geometry" />
        </mxCell>
        <mxCell id="yrhz_q4X63MFtbPa7LVN-3" value="Buffer" style="shape=cylinder3;whiteSpace=wrap;html=1;boundedLbl=1;backgroundOutline=1;size=15;" vertex="1" parent="1">
          <mxGeometry x="440" y="530" width="60" height="80" as="geometry" />
        </mxCell>
        <mxCell id="yrhz_q4X63MFtbPa7LVN-10" style="edgeStyle=orthogonalEdgeStyle;rounded=0;orthogonalLoop=1;jettySize=auto;html=1;" edge="1" parent="1" source="yrhz_q4X63MFtbPa7LVN-4" target="yrhz_q4X63MFtbPa7LVN-6">
          <mxGeometry relative="1" as="geometry" />
        </mxCell>
        <mxCell id="yrhz_q4X63MFtbPa7LVN-4" value="Rest sender" style="rounded=1;whiteSpace=wrap;html=1;" vertex="1" parent="1">
          <mxGeometry x="570" y="540" width="120" height="60" as="geometry" />
        </mxCell>
        <mxCell id="yrhz_q4X63MFtbPa7LVN-6" value="Backend" style="ellipse;whiteSpace=wrap;html=1;" vertex="1" parent="1">
          <mxGeometry x="760" y="530" width="120" height="80" as="geometry" />
        </mxCell>
        <mxCell id="yrhz_q4X63MFtbPa7LVN-13" value="MQTT Client" style="text;html=1;align=center;verticalAlign=middle;resizable=0;points=[];autosize=1;strokeColor=none;fillColor=none;" vertex="1" parent="1">
          <mxGeometry x="425" y="450" width="90" height="30" as="geometry" />
        </mxCell>
      </root>
    </mxGraphModel>
  </diagram>
</mxfile>
